<?xml version="1.0" encoding="utf-8"?>
<!-- Generator: Adobe Illustrator 23.0.3, SVG Export Plug-In . SVG Version: 6.00 Build 0)  -->
<svg version="1.1" id="Layer_1" xmlns="http://www.w3.org/2000/svg" xmlns:xlink="http://www.w3.org/1999/xlink" x="0px" y="0px"
	 viewBox="0 0 512 512" style="fill:#5f657f" xml:space="preserve">
<g>
	<g>
		<path d="M248.5,3.1l-160,160c-4.2,4.2-4.2,10.9,0,15.1c4.2,4.2,10.9,4.2,15.1,0L245.3,36.4v464.9c0,5.9,4.8,10.7,10.7,10.7
			c5.9,0,10.7-4.8,10.7-10.7V36.4l141.8,141.8c4.2,4.2,10.9,4.2,15.1,0c2.1-2.1,3.1-4.8,3.1-7.5s-1-5.5-3.1-7.5l-160-160
			C259.4-1,252.6-1,248.5,3.1z"/>
	</g>
</g>
</svg>
